<svg width="281" height="83" viewBox="0 0 281 83" fill="none" xmlns="http://www.w3.org/2000/svg">
<g clip-path="url(#clip0)">
<path fill-rule="evenodd" clip-rule="evenodd" d="M-8 24.9345V25.1428L39.313 47.3834L86.7952 25.0683V25.0124L39.313 2.69385L-8 24.9345ZM9.05805 25.0395L39.313 10.816L69.5746 25.0395L39.313 39.2613L9.05636 25.0395H9.05805ZM39.313 56.0222L-8 34.1153V42.2188L39.313 64.1782L86.7952 42.1426V34.039L39.313 56.0222ZM39.313 72.4579L-8 50.5459V58.6477L39.313 80.6122L86.7952 58.5749V50.4714L39.313 72.4579Z" fill="white"/>
<mask id="mask0" mask-type="alpha" maskUnits="userSpaceOnUse" x="113" y="1" width="160" height="82">
<path d="M113.903 1.05078H272.956V82.8481H113.905L113.903 1.05078Z" fill="white"/>
</mask>
<g mask="url(#mask0)">
<path fill-rule="evenodd" clip-rule="evenodd" d="M262.098 41.9112C262.126 38.413 260.817 35.0362 258.44 32.4712C257.322 31.2717 255.975 30.3081 254.479 29.6374C252.962 28.9566 251.317 28.6094 249.654 28.6194C247.945 28.6194 246.335 28.9581 244.826 29.6374C243.33 30.3081 241.984 31.2716 240.865 32.4712C238.488 35.037 237.181 38.4144 237.209 41.9129C237.181 45.4109 238.489 48.7875 240.865 51.3529C241.984 52.5519 243.331 53.5149 244.826 54.1851C246.344 54.8667 247.989 55.2144 249.653 55.2048C251.362 55.2048 252.97 54.866 254.48 54.1851C255.976 53.5146 257.322 52.5517 258.44 51.3529C260.817 48.7873 262.125 45.4098 262.096 41.9112H262.098ZM272.957 41.9112C272.957 45.1838 272.353 48.2175 271.146 51.0124C269.987 53.7371 268.295 56.2022 266.169 58.2622C264.058 60.3033 261.582 61.9142 258.741 63.0965C255.901 64.2806 252.871 64.8717 249.653 64.8717C246.436 64.8717 243.418 64.2806 240.603 63.0965C237.853 61.9564 235.345 60.3032 233.212 58.225C231.091 56.1466 229.4 53.6704 228.236 50.9379C227.029 48.143 226.424 45.1347 226.424 41.9112C226.424 38.7386 227.041 35.7557 228.273 32.9608C229.465 30.2231 231.167 27.737 233.287 25.6347C235.412 23.5367 237.922 21.8698 240.679 20.7259C243.521 19.5374 246.573 18.9337 249.653 18.9507C252.871 18.9507 255.899 19.5436 258.741 20.7259C261.582 21.9082 264.056 23.5208 266.169 25.5602C268.282 27.5996 269.94 30.0287 271.146 32.8473C272.353 35.6676 272.957 38.6895 272.957 41.9112ZM222.653 63.5132C221.722 63.942 220.749 64.2713 219.75 64.4957C218.67 64.7464 217.549 64.8717 216.395 64.8717C214.826 64.8773 213.265 64.6612 211.757 64.2297C210.325 63.83 208.999 63.1212 207.872 62.1531C206.766 61.196 205.886 59.951 205.231 58.4147C204.579 56.8783 204.252 55.0269 204.252 52.8638V1.0498H215.338V50.9752C215.338 52.7876 215.702 54.0343 216.432 54.7135C217.16 55.3928 218.028 55.7333 219.034 55.7333C220.29 55.7333 221.497 55.3555 222.653 54.6001V63.5132ZM199.35 20.006L179.741 71.8962C178.284 75.7735 176.373 78.5684 174.009 80.2809C171.646 81.9917 168.83 82.8472 165.562 82.8472C165.06 82.8472 164.508 82.8099 163.904 82.7354C163.318 82.6632 162.738 82.5494 162.168 82.3949L158.549 72.274C159.397 72.6739 160.281 72.9899 161.19 73.2175C162.094 73.4444 162.949 73.5579 163.753 73.5579C165.463 73.5579 167.02 73.1683 168.428 72.3875C169.837 71.6083 170.917 70.16 171.672 68.0444L173.18 63.664L156.362 20.0077H168.203L178.233 48.1057L187.662 20.0077H199.35V20.006ZM153.723 13.4371H125.366V27.4862H153.346V37.0024H125.364V63.7385H113.904V3.39244H153.725V13.4371H153.723Z" fill="white"/>
</g>
</g>
<defs>
<clipPath id="clip0">
<rect width="281" height="83" fill="white"/>
</clipPath>
</defs>
</svg>
