<svg width="150" height="30" viewBox="0 0 150 30" fill="none" xmlns="http://www.w3.org/2000/svg">
<path d="M86.7857 1H63.2143C61.4397 1 60 2.37429 60 4.06818V26.5682C60 28.2621 61.4397 29.6364 63.2143 29.6364H86.7857C88.5603 29.6364 90 28.2621 90 26.5682V4.06818C90 2.37429 88.5603 1 86.7857 1ZM83.5112 11.1506C83.5246 11.3295 83.5246 11.5149 83.5246 11.6939C83.5246 17.2358 79.1049 23.6214 71.029 23.6214C68.5379 23.6214 66.2277 22.9311 64.2857 21.7422C64.6406 21.7805 64.9821 21.7933 65.3438 21.7933C67.3996 21.7933 69.2879 21.1285 70.7946 20.0035C68.8661 19.9652 67.2455 18.7571 66.6897 17.0952C67.3661 17.191 67.9754 17.1911 68.6719 17.0185C66.6629 16.6286 65.1562 14.9411 65.1562 12.902V12.8509C65.7388 13.1641 66.4219 13.3558 67.1384 13.3814C66.536 12.9989 66.0422 12.48 65.701 11.8711C65.3598 11.2621 65.1819 10.5819 65.183 9.89134C65.183 9.11151 65.3973 8.3956 65.779 7.77557C67.942 10.3196 71.1897 11.9815 74.8326 12.1605C74.2098 9.31605 76.4397 7.00852 79.1183 7.00852C80.3839 7.00852 81.5223 7.51349 82.3259 8.33168C83.317 8.1527 84.2679 7.80114 85.1116 7.32173C84.7835 8.29332 84.0938 9.11151 83.183 9.62926C84.067 9.53977 84.9241 9.30327 85.7143 8.97727C85.1183 9.81463 84.3683 10.5561 83.5112 11.1506Z" fill="#F6F6FE"/>
<rect width="30" height="28" transform="translate(120 1)" fill="#F6F6FE"/>
<path d="M135.002 9.64976C132.165 9.64976 129.876 11.8346 129.876 14.5433C129.876 17.2521 132.165 19.4369 135.002 19.4369C137.84 19.4369 140.129 17.2521 140.129 14.5433C140.129 11.8346 137.84 9.64976 135.002 9.64976ZM135.002 17.7248C133.168 17.7248 131.669 16.298 131.669 14.5433C131.669 12.7886 133.164 11.3619 135.002 11.3619C136.84 11.3619 138.335 12.7886 138.335 14.5433C138.335 16.298 136.836 17.7248 135.002 17.7248ZM141.534 9.44958C141.534 10.0842 140.999 10.591 140.339 10.591C139.674 10.591 139.143 10.0799 139.143 9.44958C139.143 8.81925 139.678 8.30817 140.339 8.30817C140.999 8.30817 141.534 8.81925 141.534 9.44958ZM144.93 10.608C144.854 9.07905 144.488 7.72469 143.315 6.60883C142.146 5.49298 140.727 5.14374 139.125 5.06708C137.474 4.97764 132.526 4.97764 130.875 5.06708C129.278 5.13948 127.859 5.48872 126.685 6.60458C125.512 7.72043 125.151 9.07479 125.07 10.6038C124.977 12.1796 124.977 16.9028 125.07 18.4786C125.146 20.0076 125.512 21.362 126.685 22.4778C127.859 23.5937 129.273 23.9429 130.875 24.0196C132.526 24.109 137.474 24.109 139.125 24.0196C140.727 23.9472 142.146 23.598 143.315 22.4778C144.484 21.362 144.849 20.0076 144.93 18.4786C145.023 16.9028 145.023 12.1839 144.93 10.608ZM142.797 20.1695C142.449 21.0042 141.775 21.6473 140.896 21.9838C139.58 22.4821 136.457 22.3671 135.002 22.3671C133.548 22.3671 130.42 22.4778 129.108 21.9838C128.234 21.6516 127.56 21.0085 127.207 20.1695C126.685 18.9131 126.806 15.9318 126.806 14.5433C126.806 13.1549 126.69 10.1694 127.207 8.91721C127.555 8.08245 128.229 7.43934 129.108 7.10288C130.424 6.60458 133.548 6.71957 135.002 6.71957C136.457 6.71957 139.584 6.60883 140.896 7.10288C141.771 7.43508 142.445 8.07819 142.797 8.91721C143.319 10.1736 143.199 13.1549 143.199 14.5433C143.199 15.9318 143.319 18.9173 142.797 20.1695Z" fill="#070439"/>
<path d="M26.7857 0H3.21429C2.3618 0 1.54424 0.323254 0.941442 0.89865C0.338647 1.47405 0 2.25445 0 3.06818L0 25.5682C0 26.3819 0.338647 27.1623 0.941442 27.7377C1.54424 28.3131 2.3618 28.6364 3.21429 28.6364H12.4051V18.9006H8.18638V14.3182H12.4051V10.8256C12.4051 6.85291 14.8828 4.65852 18.6777 4.65852C20.4951 4.65852 22.3955 4.9679 22.3955 4.9679V8.86705H20.3016C18.2384 8.86705 17.5949 10.0892 17.5949 11.3427V14.3182H22.2007L21.4641 18.9006H17.5949V28.6364H26.7857C27.6382 28.6364 28.4558 28.3131 29.0586 27.7377C29.6614 27.1623 30 26.3819 30 25.5682V3.06818C30 2.25445 29.6614 1.47405 29.0586 0.89865C28.4558 0.323254 27.6382 0 26.7857 0Z" fill="#F6F6FE"/>
</svg>
